<svg xmlns="http://www.w3.org/2000/svg" viewBox="0 0 177.55 115.48"><defs><style>.cls-1{fill:#f8b517;}.cls-2{fill:#1e3f76;}</style></defs><g id="Layer_2" data-name="Layer 2"><g id="Layer_1-2" data-name="Layer 1"><path class="cls-1" d="M118.89,68l-8.48,8.49L118.89,85l8.49-8.49Z"/><polygon class="cls-1" points="146.11 57.74 127.38 76.47 118.89 67.99 129.14 57.74 88.37 16.97 66.74 38.6 58.26 47.09 49.77 38.6 58.26 30.12 88.37 0 118.89 30.52 127.38 39.01 146.11 57.74"/><path class="cls-2" d="M42.94,14.8,0,57.74l42.94,42.94L58.26,85.36l-8.49-8.48-6.83,6.83-26-26,26-26L58.26,47.09,68.91,57.74,58.26,68.39l8.48,8.49L85.88,57.74Z"/><polygon class="cls-1" points="118.89 84.96 88.37 115.48 58.26 85.36 49.77 76.88 30.64 57.74 49.77 38.6 58.26 47.09 47.61 57.74 58.26 68.39 66.74 76.88 88.37 98.51 110.41 76.48 118.89 84.96"/><path class="cls-2" d="M134.61,14.8,118.89,30.52,127.38,39l7.23-7.24,26,26-26,26-7.23-7.24L118.89,68,108.65,57.74l10.24-10.25L110.41,39,91.67,57.74l18.74,18.74L118.89,85l15.72,15.72,42.94-42.94Z"/></g></g></svg>